<?xml version="1.0" standalone="no"?>
<!DOCTYPE svg PUBLIC "-//W3C//DTD SVG 20010904//EN"
 "http://www.w3.org/TR/2001/REC-SVG-20010904/DTD/svg10.dtd">
<svg version="1.0" xmlns="http://www.w3.org/2000/svg"
 width="1280.000000pt" height="1206.000000pt" viewBox="0 0 1280.000000 1206.000000"
 preserveAspectRatio="xMidYMid meet">
<metadata>
Created by potrace 1.15, written by Peter Selinger 2001-2017
</metadata>
<g transform="translate(0.000000,1206.000000) scale(0.100000,-0.100000)"
fill="#000000" stroke="none">
<path d="M9401 12002 c-145 -239 -638 -986 -1349 -2040 l-575 -854 -48 95
c-26 53 -82 151 -125 219 -278 439 -335 570 -337 773 -1 125 17 195 88 345 61
131 76 174 101 285 23 105 23 347 0 460 -19 95 -68 252 -99 315 l-22 45 -145
32 c-298 66 -448 106 -549 144 -58 21 -106 37 -109 35 -9 -10 90 -96 198 -172
236 -166 261 -231 174 -446 -59 -147 -110 -235 -291 -509 -238 -359 -301 -502
-322 -729 -5 -47 -14 -100 -22 -117 -12 -29 -10 -44 10 -130 36 -147 38 -199
10 -229 -12 -13 -26 -24 -30 -24 -3 0 -45 57 -92 128 -160 239 -293 395 -707
827 -158 165 -327 344 -376 399 -235 260 -470 592 -488 690 -11 58 -46 88 -98
84 -34 -2 -45 -8 -57 -30 -14 -25 -13 -33 23 -125 144 -370 229 -657 414
-1393 72 -283 151 -591 177 -685 60 -217 177 -571 248 -745 61 -152 61 -154
-13 -205 -50 -35 -73 -28 -89 28 -30 101 -126 243 -230 339 -139 129 -284 206
-682 363 -359 142 -537 235 -575 300 -66 113 -224 298 -348 407 -318 279 -670
419 -1015 406 -137 -6 -271 -32 -271 -52 0 -26 170 -175 344 -301 357 -259
441 -368 497 -642 68 -333 169 -553 328 -716 55 -57 192 -157 214 -157 12 0
416 -180 510 -226 208 -104 347 -217 439 -354 l50 -75 -93 -3 c-176 -6 -507
18 -1134 83 -717 74 -987 91 -1345 80 -140 -4 -343 -6 -450 -5 -107 0 -220 -4
-250 -10 -105 -20 -173 -69 -181 -129 -5 -29 -48 -10 461 -195 550 -199 898
-332 1445 -551 378 -153 924 -381 935 -391 2 -3 -40 -2 -95 2 -121 8 -284 -8
-416 -41 -257 -64 -447 -170 -657 -367 -228 -214 -337 -253 -780 -283 -425
-27 -495 -47 -757 -215 -168 -107 -464 -254 -755 -373 -73 -30 -85 -38 -88
-60 -4 -33 -4 -33 278 -47 237 -12 312 -23 457 -71 88 -29 113 -32 250 -37
173 -5 222 1 538 63 121 24 261 49 310 56 114 15 301 6 420 -21 240 -53 392
-17 800 190 149 75 300 149 338 164 121 48 337 91 337 67 0 -19 -223 -236
-329 -320 -138 -110 -326 -232 -674 -440 -450 -268 -623 -385 -785 -534 -65
-60 -108 -87 -252 -162 -198 -103 -273 -162 -315 -250 -32 -68 -32 -99 1 -132
26 -26 27 -26 137 -20 139 7 302 36 472 82 259 71 454 148 985 390 129 59 298
133 375 165 141 59 426 160 451 160 11 0 11 -7 -1 -39 -20 -57 -39 -92 -127
-235 -44 -70 -95 -166 -115 -211 -79 -190 -147 -250 -468 -411 -126 -63 -255
-134 -285 -157 -135 -101 -195 -201 -211 -349 -15 -154 -43 -215 -156 -349
-177 -207 -219 -269 -237 -342 -6 -26 -5 -27 30 -27 57 0 226 38 312 69 211
78 430 217 663 422 l65 58 125 25 c290 59 505 159 667 310 87 82 139 157 215
316 51 105 78 150 126 202 147 160 359 248 596 248 51 0 100 -3 108 -6 12 -4
2 -33 -49 -139 -147 -307 -339 -780 -559 -1371 -245 -660 -298 -802 -390
-1034 -51 -129 -134 -330 -184 -447 -77 -180 -91 -221 -91 -266 0 -76 31 -121
85 -125 l40 -3 178 205 c587 675 1010 1219 1372 1767 112 168 316 501 391 636
16 29 32 53 36 53 19 0 52 -68 56 -114 7 -91 -68 -269 -229 -542 -60 -101
-102 -204 -131 -321 -19 -75 -22 -116 -22 -278 -1 -287 35 -452 212 -980 67
-200 67 -200 66 -310 0 -83 -8 -149 -33 -270 -65 -313 -52 -458 48 -567 37
-42 67 -36 142 25 110 92 193 204 279 382 64 130 203 475 221 545 21 82 17
305 -9 495 -40 305 -38 424 12 561 34 93 55 120 375 492 147 170 223 279 291
417 65 131 100 253 100 349 0 33 4 56 8 50 11 -12 127 -315 237 -619 88 -242
233 -675 630 -1875 275 -833 270 -820 302 -820 75 0 93 45 113 290 13 164 2
348 -47 735 -40 321 -45 493 -28 1003 8 273 1 428 -46 892 -53 538 -60 623
-66 836 l-6 211 44 6 c100 14 246 -26 346 -94 211 -144 412 -502 478 -854 22
-114 38 -151 112 -250 231 -309 628 -534 1008 -571 151 -15 229 -70 352 -250
108 -158 192 -234 260 -234 20 0 21 6 28 235 14 436 -24 628 -160 821 -77 108
-152 163 -405 299 -79 43 -167 93 -195 111 -71 48 -168 147 -198 202 -24 45
-25 57 -30 257 -5 227 -21 339 -63 470 -47 143 -93 220 -206 344 -143 156
-138 227 11 151 145 -73 451 -194 696 -275 214 -71 716 -212 1085 -305 47 -12
95 -28 107 -36 53 -34 103 -10 103 50 0 43 -10 55 -114 139 -143 116 -343 291
-706 617 -492 443 -736 646 -970 812 -65 45 -118 88 -116 93 4 17 96 64 171
87 52 17 94 22 165 22 158 -1 253 -26 605 -164 138 -54 280 -107 317 -118 175
-54 333 -65 461 -33 104 27 148 52 192 109 38 51 106 108 160 134 116 58 230
70 540 56 133 -6 258 -8 279 -4 35 7 37 9 31 34 -24 100 -181 295 -304 376
-223 149 -529 189 -838 111 -113 -29 -157 -31 -238 -10 -112 30 -171 70 -305
209 -362 375 -372 383 -557 447 -80 28 -104 31 -263 38 -144 6 -182 11 -215
27 -21 10 -40 24 -42 30 -4 12 370 201 602 304 77 34 300 131 495 215 491 212
659 289 923 423 l228 115 -33 34 c-50 52 -160 102 -247 112 -110 14 -234 -3
-482 -65 -225 -56 -278 -65 -504 -84 -71 -7 -362 -40 -645 -75 -461 -57 -728
-86 -903 -98 -54 -4 -59 -2 -68 20 -15 41 -10 129 11 185 22 60 97 139 170
181 64 36 208 83 320 103 60 10 182 19 335 23 l240 7 78 37 c153 71 261 167
360 317 64 98 117 211 217 460 139 348 219 490 342 612 37 36 94 83 128 104
33 20 60 38 60 40 0 2 -26 21 -57 42 -171 116 -379 176 -528 152 -117 -19
-142 -37 -355 -254 -108 -111 -250 -258 -315 -329 -136 -147 -186 -178 -326
-203 -73 -14 -113 -14 -314 -3 -287 16 -365 6 -511 -65 -132 -64 -166 -89
-338 -255 -145 -139 -229 -202 -288 -216 l-27 -7 21 74 c69 247 221 730 433
1378 167 511 203 621 290 905 82 265 205 693 205 713 0 12 -85 72 -102 72 -7
0 -28 -26 -47 -58z m-82 -468 c-258 -877 -704 -2250 -909 -2796 l-21 -58 -62
32 c-34 17 -155 72 -269 123 -208 93 -334 163 -397 221 l-34 31 185 279 c174
263 321 493 763 1199 308 491 799 1225 811 1212 2 -2 -28 -111 -67 -243z
m-2439 16 c116 -32 189 -155 197 -330 2 -52 7 -143 10 -201 7 -136 -11 -208
-106 -437 -115 -276 -136 -369 -119 -512 17 -141 219 -555 415 -849 70 -104
79 -122 59 -117 -175 44 -366 35 -807 -38 -120 -20 -228 -36 -242 -36 -22 0
-31 12 -70 93 -94 190 -130 361 -129 602 1 233 40 437 129 675 32 85 44 103
114 178 232 249 408 615 445 925 6 56 7 57 38 57 17 0 47 -5 66 -10z m-2164
-740 c672 -764 923 -1071 1206 -1475 136 -194 152 -225 152 -299 1 -57 0 -59
-43 -97 -49 -44 -100 -62 -299 -108 -169 -39 -228 -62 -291 -116 -224 -191
-328 -125 -446 285 -58 200 -86 281 -120 350 -19 36 -36 85 -40 110 -26 165
-117 513 -260 990 -57 190 -129 433 -160 540 -30 107 -58 204 -61 215 l-6 20
19 -20 c11 -11 168 -189 349 -395z m-2557 -605 c338 -48 624 -174 811 -357 36
-34 119 -135 185 -223 248 -334 460 -498 708 -549 42 -9 87 -16 100 -16 84 0
256 -68 380 -152 150 -100 336 -327 431 -525 l39 -82 -54 -59 c-46 -49 -66
-84 -118 -203 -84 -195 -122 -245 -212 -283 l-35 -15 -60 91 c-117 179 -267
292 -604 455 -384 186 -441 216 -534 277 -115 75 -250 209 -304 301 -56 96
-93 211 -103 325 -20 228 -122 418 -334 618 -53 50 -188 161 -300 247 -113 86
-205 158 -205 160 0 10 108 4 209 -10z m9086 -56 c50 -11 113 -27 142 -35 52
-14 113 -56 113 -78 0 -6 -59 -69 -130 -139 -200 -197 -282 -319 -316 -472 -8
-38 -24 -108 -34 -155 -47 -208 -197 -419 -392 -551 -180 -123 -415 -174 -608
-134 -136 28 -215 15 -365 -60 -164 -82 -296 -213 -377 -371 -24 -46 -49 -84
-56 -84 -56 0 -116 59 -174 175 -56 110 -73 125 -250 215 -234 119 -268 145
-268 203 0 27 25 51 133 130 37 26 111 88 165 136 269 242 399 335 547 393 76
30 88 31 220 32 77 0 223 -1 325 -3 207 -5 273 5 379 58 70 36 113 82 275 296
199 263 316 372 466 437 79 33 91 34 205 7z m-3928 -1160 c403 -67 799 -256
1357 -646 186 -131 421 -333 488 -420 67 -89 83 -129 86 -225 l4 -87 -38 -16
c-54 -22 -74 -44 -74 -78 0 -32 35 -68 200 -204 135 -111 192 -202 155 -243
-34 -38 -81 -23 -195 60 -115 84 -161 98 -196 59 -23 -25 -30 -19 139 -122
152 -92 226 -159 266 -239 41 -81 41 -108 1 -108 -48 0 -87 21 -205 110 -120
90 -159 112 -222 129 -46 13 -113 6 -140 -15 -17 -12 -17 -14 2 -29 11 -8 98
-54 192 -101 95 -47 199 -103 230 -123 99 -64 183 -174 171 -225 -5 -24 -104
14 -256 97 -184 101 -232 120 -312 121 -51 1 -73 -4 -100 -21 -25 -16 -30 -23
-20 -27 8 -3 72 -26 141 -50 258 -91 383 -157 463 -246 46 -51 84 -130 92
-191 8 -62 -11 -188 -34 -218 -35 -47 -54 -40 -118 45 -96 128 -246 236 -434
312 -104 43 -135 42 -146 -5 -10 -38 16 -62 102 -96 232 -94 414 -247 509
-429 32 -60 36 -76 31 -113 -9 -54 -44 -109 -74 -113 -37 -5 -88 34 -169 131
-169 203 -245 267 -316 267 -31 0 -90 -32 -77 -42 3 -2 34 -27 70 -55 78 -61
258 -245 321 -328 26 -33 70 -95 98 -138 l52 -77 -21 -35 c-45 -73 -97 -84
-149 -33 -19 18 -65 77 -102 130 -38 54 -84 109 -103 123 -40 31 -84 32 -120
4 l-27 -21 59 -62 c135 -141 224 -319 239 -478 l6 -67 -59 -73 c-306 -381
-749 -681 -1239 -841 -272 -89 -531 -129 -835 -129 -294 0 -539 39 -793 124
-202 67 -452 188 -452 217 0 26 50 51 124 61 96 13 125 28 129 63 l3 28 -218
-3 c-221 -2 -290 5 -376 39 -31 13 -35 18 -25 30 23 28 66 42 177 57 133 19
237 64 184 80 -46 13 -185 26 -283 26 -186 0 -360 36 -427 88 -45 35 4 92 79
92 19 0 85 -9 148 -21 63 -12 134 -19 158 -16 50 5 92 39 92 73 0 20 -7 22
-97 32 -54 6 -163 15 -243 21 -219 17 -321 50 -394 131 -37 41 -61 88 -51 98
3 3 75 -21 161 -53 240 -89 298 -99 444 -71 80 16 100 31 100 78 0 18 -8 33
-25 44 -23 15 -27 15 -67 -6 -37 -19 -51 -21 -118 -15 -285 26 -500 102 -613
217 l-62 63 33 3 c20 2 89 -15 175 -44 168 -55 253 -66 322 -40 25 10 45 22
45 27 0 18 -90 50 -268 96 -298 76 -387 134 -417 271 -9 44 3 43 141 -17 223
-98 294 -104 338 -31 l17 29 -38 6 c-232 36 -383 142 -476 335 -91 187 -122
396 -115 780 5 256 -2 215 104 650 57 232 141 387 261 478 50 39 59 50 80 113
83 246 236 420 433 489 36 13 74 31 85 41 49 42 206 136 318 189 145 70 398
156 587 200 74 17 281 60 460 95 315 62 329 64 440 58 63 -3 166 -13 227 -24z
m4753 -804 c7 -8 10 -20 7 -27 -5 -15 -225 -111 -777 -341 -583 -243 -727
-307 -1030 -459 -230 -115 -467 -245 -581 -321 l-25 -17 -96 258 c-129 344
-180 519 -155 527 19 6 468 70 977 140 527 72 599 83 880 126 213 32 702 119
709 125 11 11 80 2 91 -11z m-10440 -385 c902 -31 1664 -89 2435 -186 285 -35
265 -30 265 -71 0 -46 -30 -190 -84 -403 -59 -233 -78 -343 -79 -472 -1 -67
-6 -108 -12 -108 -16 0 -492 186 -1150 450 -930 372 -1392 548 -1805 687 -107
36 -199 69 -203 73 -5 4 -1 15 8 24 20 20 186 21 625 6z m8725 -925 c140 -21
206 -41 312 -91 118 -56 200 -132 288 -265 105 -160 184 -234 322 -303 104
-52 187 -69 313 -64 91 4 118 10 197 41 307 120 679 37 722 -161 5 -26 9 -48
8 -49 -1 -1 -36 3 -77 8 -196 24 -393 -43 -676 -233 -157 -104 -220 -128 -345
-128 -131 0 -210 27 -479 163 -361 183 -385 189 -705 190 -59 0 -95 -8 -240
-58 -194 -67 -285 -80 -347 -51 l-36 17 30 58 c48 94 56 179 34 389 -29 280
-30 320 -12 392 18 70 51 121 100 152 29 19 43 19 261 14 127 -3 275 -12 330
-21z m-6600 -302 c32 -8 140 -44 240 -79 99 -36 186 -67 193 -69 9 -3 12 -36
12 -119 0 -515 193 -1052 525 -1461 131 -162 388 -393 504 -455 20 -10 21 -14
9 -21 -25 -14 -94 -35 -300 -93 -108 -31 -234 -69 -279 -86 -92 -33 -223 -101
-257 -133 -13 -12 -60 -80 -105 -152 -192 -307 -285 -430 -390 -513 -119 -95
-225 -135 -397 -151 -184 -17 -286 -70 -486 -248 -149 -132 -203 -177 -267
-217 -68 -44 -163 -81 -230 -91 -47 -7 -47 -7 -47 21 1 39 28 97 88 185 56 83
57 86 82 209 46 226 173 351 560 554 91 48 203 113 250 144 l84 57 56 130 c69
159 99 220 158 310 54 84 165 201 239 252 l54 37 -6 46 c-11 91 29 124 181
150 172 29 204 48 204 124 0 42 -2 44 -32 49 -42 6 -143 -8 -205 -29 -55 -19
-146 -64 -277 -136 -115 -64 -222 -107 -300 -120 -39 -7 -111 -34 -201 -78
-187 -91 -366 -166 -690 -290 -148 -56 -358 -139 -465 -182 -205 -84 -446
-160 -566 -178 -71 -11 -164 1 -164 20 0 11 1494 1043 2055 1421 l290 195 40
-14 c77 -27 204 9 249 71 19 25 19 30 6 54 -12 22 -37 33 -135 65 -198 63
-294 71 -451 39 -126 -26 -239 -73 -519 -217 -248 -126 -359 -172 -489 -198
-94 -20 -222 -20 -306 -1 -95 22 -316 30 -440 16 -58 -7 -199 -30 -315 -52
-115 -22 -264 -47 -330 -55 -153 -21 -337 -14 -449 15 -82 22 -209 75 -225 95
-7 8 24 35 97 86 233 164 432 264 630 318 93 25 108 26 367 27 254 1 274 2
340 24 139 46 243 107 485 281 236 170 281 200 377 249 170 85 287 104 545 86
95 -6 138 -5 173 5 54 15 101 57 110 100 7 33 -1 33 120 3z m5945 -967 c210
-58 377 -153 600 -339 47 -39 229 -213 405 -387 324 -320 445 -426 590 -518
125 -80 122 -77 106 -96 -21 -25 -87 -20 -179 14 -46 17 -92 30 -103 30 -12 0
-92 27 -178 59 -86 33 -289 105 -451 161 -452 156 -739 257 -899 319 l-146 57
-3 64 c-4 84 12 203 43 323 38 145 108 337 123 337 4 0 45 -11 92 -24z m-351
-875 c34 -10 83 -33 111 -51 70 -45 185 -172 248 -273 68 -109 167 -325 181
-398 7 -34 11 -148 10 -295 -2 -266 5 -316 63 -406 39 -62 77 -91 228 -173
361 -196 570 -378 674 -583 36 -71 66 -191 66 -263 0 -54 -23 -190 -36 -210
-3 -5 -23 12 -44 38 -92 116 -234 194 -465 257 -508 138 -563 164 -756 364
-153 157 -182 220 -309 657 -53 185 -119 319 -208 421 -93 108 -159 158 -325
248 -78 43 -147 83 -154 89 -10 9 28 44 164 152 201 159 328 280 397 378 54
76 60 78 155 48z m-3941 -594 c516 -305 1034 -477 1545 -513 115 -8 107 1 138
-149 42 -202 9 -426 -94 -630 -72 -144 -169 -257 -318 -371 -119 -92 -187
-171 -244 -289 -102 -207 -120 -463 -54 -728 30 -118 36 -306 15 -422 -30
-159 -92 -323 -222 -585 -102 -208 -127 -251 -153 -264 -38 -20 -46 -20 -65 0
-29 29 -15 182 34 359 44 159 44 347 -1 553 -11 51 -48 180 -81 285 -139 437
-174 603 -165 782 10 186 49 302 228 677 158 331 195 464 186 662 -7 146 -18
183 -62 202 -50 21 -112 18 -147 -7 -39 -28 -68 -76 -121 -201 -43 -104 -78
-161 -505 -823 -366 -567 -615 -893 -928 -1215 -113 -116 -171 -186 -234 -280
-105 -157 -136 -196 -177 -221 -66 -41 -64 -22 20 156 122 261 298 679 472
1120 350 889 528 1331 618 1535 119 270 194 430 202 430 3 0 54 -28 113 -63z
m2783 -308 c14 -26 52 -262 73 -449 36 -315 50 -566 71 -1235 22 -705 48
-1075 95 -1389 11 -71 18 -131 16 -134 -8 -8 -65 89 -87 148 -11 30 -36 114
-55 185 -62 234 -93 314 -159 405 -28 39 -37 69 -68 225 -84 418 -187 735
-531 1640 -86 226 -157 416 -159 424 -3 20 66 40 349 99 131 28 275 62 319 75
102 31 122 32 136 6z"/>
<path d="M5796 8501 c-9 -17 -14 -36 -10 -42 16 -26 83 -41 199 -46 66 -2 170
-14 230 -26 88 -17 144 -21 280 -20 226 1 398 27 688 105 l122 33 -665 6
c-366 4 -702 10 -747 14 l-81 8 -16 -32z"/>
<path d="M7430 8185 c-67 -36 -218 -83 -322 -100 -137 -22 -347 -19 -623 10
-306 33 -522 41 -645 26 -99 -12 -120 -22 -120 -52 0 -38 36 -46 225 -52 99
-4 279 -16 400 -28 295 -30 686 -33 820 -6 179 37 396 122 403 159 5 24 -42
68 -70 68 -13 -1 -43 -12 -68 -25z"/>
<path d="M6525 7526 c-10 -66 0 -253 21 -406 16 -110 25 -390 16 -485 -1 -16
1 -94 5 -172 9 -151 20 -183 67 -183 21 0 21 4 25 253 10 554 7 757 -13 826
-20 73 -53 142 -89 186 l-25 30 -7 -49z"/>
<path d="M7741 7394 c-98 -18 -147 -34 -326 -112 -160 -68 -272 -102 -340
-102 -34 0 -46 -5 -59 -25 -46 -70 22 -135 143 -135 54 0 107 24 176 80 68 54
212 125 310 151 116 32 304 32 395 0 95 -33 147 -66 222 -142 79 -80 134 -105
168 -74 30 27 24 57 -23 122 -85 115 -213 202 -352 238 -71 18 -210 18 -314
-1z"/>
<path d="M5335 7344 c-16 -3 -77 -16 -135 -31 -181 -44 -331 -122 -418 -218
-45 -49 -97 -134 -88 -143 6 -5 80 34 205 110 244 148 314 173 465 164 55 -3
126 -5 156 -5 76 0 126 -20 244 -98 132 -88 192 -109 264 -93 28 6 52 15 52
20 0 20 -86 115 -141 155 -130 96 -256 136 -444 140 -71 2 -143 1 -160 -1z"/>
<path d="M7425 6972 c-134 -42 -202 -72 -246 -109 -33 -29 -69 -92 -69 -123 0
-42 75 -17 174 60 96 73 156 75 186 5 65 -151 311 -225 359 -108 18 46 16 65
-13 126 -26 54 -27 60 -12 75 14 14 22 14 66 3 28 -7 102 -33 163 -58 181 -73
239 -93 294 -99 68 -8 75 7 37 76 -44 80 -125 135 -246 166 -47 12 -126 17
-318 20 l-255 4 -120 -38z m259 -152 c14 -5 26 -16 26 -24 0 -30 -90 -60 -105
-36 -9 14 23 70 40 70 7 0 25 -4 39 -10z"/>
<path d="M5195 6906 c-261 -58 -430 -150 -490 -265 -21 -41 -10 -55 41 -54 27
1 60 17 133 67 108 75 152 88 198 61 21 -12 33 -30 42 -63 32 -122 206 -198
328 -143 48 22 58 46 44 98 -16 55 -13 115 5 141 22 32 80 29 152 -7 72 -36
208 -137 284 -209 31 -30 61 -51 66 -48 15 9 21 82 11 127 -34 149 -231 259
-544 304 -128 19 -149 18 -270 -9z m186 -127 c34 -34 11 -101 -44 -131 -37
-20 -63 37 -51 113 6 36 9 39 40 39 21 0 42 -8 55 -21z"/>
<path d="M8087 6621 c-80 -120 -220 -149 -422 -88 -213 64 -262 78 -311 83
-29 4 -65 3 -81 -1 l-28 -7 40 -35 c155 -135 523 -192 737 -114 115 41 132 49
145 67 31 42 2 133 -43 134 -6 0 -23 -18 -37 -39z"/>
<path d="M5770 6464 c-8 -3 -55 -25 -105 -49 -158 -77 -221 -97 -321 -103
-145 -7 -256 18 -452 105 -85 38 -106 43 -113 32 -16 -25 -10 -55 20 -96 40
-56 72 -79 144 -102 221 -74 462 -67 684 18 64 25 237 122 263 148 3 2 -8 16
-23 29 -26 22 -62 29 -97 18z"/>
<path d="M7483 6043 c-27 -10 -13 -43 30 -69 96 -60 106 -85 57 -151 -37 -51
-85 -69 -194 -77 -106 -8 -142 -27 -183 -98 -67 -115 -137 -132 -325 -77 -141
41 -222 44 -290 11 -123 -59 -251 0 -282 131 -17 70 45 159 121 173 48 9 48
20 3 38 -108 43 -189 -9 -210 -136 -23 -149 55 -305 173 -344 43 -14 57 -15
106 -4 38 9 109 12 226 9 381 -9 459 1 514 64 42 47 99 72 222 97 57 11 127
31 155 44 50 23 54 27 70 82 42 146 -37 316 -147 313 -19 0 -40 -3 -46 -6z"/>
<path d="M7805 5191 c-31 -13 -51 -41 -70 -99 -20 -62 -52 -103 -80 -103 -11
-1 -65 9 -120 22 -125 28 -348 30 -594 5 -224 -22 -431 -21 -546 3 l-90 19
-26 -25 c-41 -38 -83 -129 -83 -181 -1 -55 19 -73 61 -55 16 6 42 16 58 22 42
14 710 42 1010 41 331 0 465 -12 527 -46 97 -52 158 -17 166 95 9 120 -60 262
-145 297 -37 16 -40 16 -68 5z"/>
<path d="M7302 4591 c-80 -49 -165 -77 -278 -92 -100 -13 -178 -9 -407 23
-170 24 -192 21 -192 -23 0 -18 12 -30 50 -51 195 -106 501 -148 701 -98 156
39 304 132 304 191 0 32 -27 65 -66 79 -37 14 -43 13 -112 -29z"/>
</g>
</svg>
